<?xml version="1.0" encoding="UTF-8" standalone="no"?><!DOCTYPE svg PUBLIC "-//W3C//DTD SVG 1.1//EN" "http://www.w3.org/Graphics/SVG/1.1/DTD/svg11.dtd"><!-- Generated by graphviz version 2.39.20160930.0541 (20160930.0541) --><!-- Title: FlowChart Pages: 1 --><svg width="573pt" height="519pt" viewBox="0.00 0.00 572.5 519" xmlns="http://www.w3.org/2000/svg" xmlns:xlink="http://www.w3.org/1999/xlink"><defs><linearGradient id="g-terminatork57txidzu" x1="0%" x2="100%" y1="0%" y2="0%" spreadMethod="pad"><stop offset="0%" stop-color="#ff8787" stop-opacity="1"/><stop offset="100%" stop-color="#ffb9b9" stop-opacity="1"/></linearGradient><linearGradient id="g-decisionk57txidzu" x1="0%" x2="100%" y1="0%" y2="0%" spreadMethod="pad"><stop offset="0%" stop-color="#ffd287" stop-opacity="1"/><stop offset="100%" stop-color="#ffffb9" stop-opacity="1"/></linearGradient><linearGradient id="g-processk57txidzu" x1="0%" x2="100%" y1="0%" y2="0%" spreadMethod="pad"><stop offset="0%" stop-color="#99ff99" stop-opacity="1"/><stop offset="100%" stop-color="#cbffcb" stop-opacity="1"/></linearGradient><linearGradient id="g-defaultk57txidzu" x1="0%" x2="100%" y1="0%" y2="0%" spreadMethod="pad"><stop offset="0%" stop-color="#99ff99" stop-opacity="1"/><stop offset="100%" stop-color="#cbffcb" stop-opacity="1"/></linearGradient><linearGradient id="g-modulek57txidzu" x1="0%" x2="100%" y1="0%" y2="0%" spreadMethod="pad"><stop offset="0%" stop-color="#77c1e4" stop-opacity="1"/><stop offset="100%" stop-color="#a9f3ff" stop-opacity="1"/></linearGradient><linearGradient id="g-dataiok57txidzu" x1="0%" x2="100%" y1="0%" y2="0%" spreadMethod="pad"><stop offset="0%" stop-color="#bebebe" stop-opacity="1"/><stop offset="100%" stop-color="#f0f0f0" stop-opacity="1"/></linearGradient><linearGradient id="g-preparationk57txidzu" x1="0%" x2="100%" y1="0%" y2="0%" spreadMethod="pad"><stop offset="0%" stop-color="#bebebe" stop-opacity="1"/><stop offset="100%" stop-color="#f0f0f0" stop-opacity="1"/></linearGradient><linearGradient id="g-commentk57txidzu" x1="0%" x2="100%" y1="0%" y2="0%" spreadMethod="pad"><stop offset="0%" stop-color="#f5f588" stop-opacity="1"/><stop offset="100%" stop-color="#ffffba" stop-opacity="1"/></linearGradient><linearGradient id="g-manualk57txidzu" x1="0%" x2="100%" y1="0%" y2="0%" spreadMethod="pad"><stop offset="0%" stop-color="#9e78ff" stop-opacity="1"/><stop offset="100%" stop-color="#d0aaff" stop-opacity="1"/></linearGradient><filter id="dropshadowk57txidzu" height="150%" width="150%"><feGaussianBlur in="SourceAlpha" stdDeviation="3"/><feOffset dx="2" dy="2" result="offsetblur"/><feComponentTransfer/><feMerge><feMergeNode/><feMergeNode in="SourceGraphic"/></feMerge></filter></defs><g id="flowk57txidzu" class="graph" transform="scale(1 1) rotate(0) translate(4 510)"><title>FlowChart</title><!-- terminator_block_1 --><g id="node1" class="node"><title>terminator_block_1</title><ellipse fill="url(#g-terminatork57txidzu)" stroke="#000000" cx="212" cy="-488" rx="147.509" ry="18"/><text text-anchor="start" x="94.5" y="-485.5" font-family="Open Sans, Noto Sans SC, Noto Sans TC, Noto Sans JP, Noto Sans KR" font-size="10.00" fill="#000000">Начало проверки на соответствие требованиям</text></g><!-- ifs_block_2 --><g id="node2" class="node"><title>ifs_block_2</title><polygon fill="url(#g-decisionk57txidzu)" stroke="#000000" points="212,-451 76.1063,-433 212,-415 347.894,-433 212,-451"/><text text-anchor="start" x="138.5" y="-430.5" font-family="Open Sans, Noto Sans SC, Noto Sans TC, Noto Sans JP, Noto Sans KR" font-size="10.00" fill="#000000">Показатель безопасности = 1?</text></g><!-- terminator_block_1&#45;&gt;ifs_block_2 --><g id="edge1" class="edge"><title>terminator_block_1->ifs_block_2</title><path fill="none" stroke="#000000" d="M212,-469.991C212,-467.265 212,-464.398 212,-461.516"/><polygon fill="#000000" stroke="#000000" points="215.5,-461.238 212,-451.238 208.5,-461.238 215.5,-461.238"/></g><!-- process_block_3 --><g id="node3" class="node"><title>process_block_3</title><polygon fill="url(#g-processk57txidzu)" stroke="#000000" points="188,-386 -1.42109e-14,-386 -1.42109e-14,-350 188,-350 188,-386"/><text text-anchor="start" x="7" y="-365.5" font-family="Open Sans, Noto Sans SC, Noto Sans TC, Noto Sans JP, Noto Sans KR" font-size="10.00" fill="#000000">Сеть соответствует требованию №1</text></g><!-- ifs_block_2&#45;&gt;process_block_3 --><g id="edge2" class="edge"><title>ifs_block_2->process_block_3</title><path fill="none" stroke="#000000" d="M185.518,-418.413C170.841,-410.328 152.26,-400.092 135.68,-390.959"/><polygon fill="#000000" stroke="#000000" points="137.161,-387.779 126.713,-386.02 133.783,-393.91 137.161,-387.779"/><text text-anchor="start" x="161" y="-399" font-family="Open Sans, Noto Sans SC, Noto Sans TC, Noto Sans JP, Noto Sans KR" font-weight="bold" font-size="10.00" fill="#000000"> True </text></g><!-- process_block_4 --><g id="node4" class="node"><title>process_block_4</title><polygon fill="url(#g-processk57txidzu)" stroke="#000000" points="431.5,-386 228.5,-386 228.5,-350 431.5,-350 431.5,-386"/><text text-anchor="start" x="235.5" y="-365.5" font-family="Open Sans, Noto Sans SC, Noto Sans TC, Noto Sans JP, Noto Sans KR" font-size="10.00" fill="#000000">Сеть не соответствует требованию №1</text></g><!-- ifs_block_2&#45;&gt;process_block_4 --><g id="edge3" class="edge"><title>ifs_block_2->process_block_4</title><path fill="none" stroke="#000000" d="M238.482,-418.413C253.159,-410.328 271.74,-400.092 288.32,-390.959"/><polygon fill="#000000" stroke="#000000" points="290.217,-393.91 297.287,-386.02 286.839,-387.779 290.217,-393.91"/><text text-anchor="start" x="279" y="-399" font-family="Open Sans, Noto Sans SC, Noto Sans TC, Noto Sans JP, Noto Sans KR" font-weight="bold" font-size="10.00" fill="#000000"> False </text></g><!-- ifs_block_5 --><g id="node5" class="node"><title>ifs_block_5</title><polygon fill="url(#g-decisionk57txidzu)" stroke="#000000" points="235,-331 94.1164,-313 235,-295 375.884,-313 235,-331"/><text text-anchor="start" x="158.5" y="-310.5" font-family="Open Sans, Noto Sans SC, Noto Sans TC, Noto Sans JP, Noto Sans KR" font-size="10.00" fill="#000000">Показатель "вредности" &lt; 50%?</text></g><!-- process_block_3&#45;&gt;ifs_block_5 --><g id="edge4" class="edge"><title>process_block_3->ifs_block_5</title><path fill="none" stroke="#000000" d="M140.169,-349.991C156.264,-343.712 174.289,-336.682 190.266,-330.449"/><polygon fill="#000000" stroke="#000000" points="191.87,-333.581 199.914,-326.686 189.326,-327.059 191.87,-333.581"/></g><!-- process_block_4&#45;&gt;ifs_block_5 --><g id="edge5" class="edge"><title>process_block_4->ifs_block_5</title><path fill="none" stroke="#000000" d="M298.893,-349.991C289.544,-344.578 279.228,-338.606 269.663,-333.068"/><polygon fill="#000000" stroke="#000000" points="271.187,-329.906 260.779,-327.925 267.679,-335.964 271.187,-329.906"/></g><!-- process_block_6 --><g id="node6" class="node"><title>process_block_6</title><polygon fill="url(#g-processk57txidzu)" stroke="#000000" points="252,-266 64,-266 64,-230 252,-230 252,-266"/><text text-anchor="start" x="71" y="-245.5" font-family="Open Sans, Noto Sans SC, Noto Sans TC, Noto Sans JP, Noto Sans KR" font-size="10.00" fill="#000000">Сеть соответствует требованию №2</text></g><!-- ifs_block_5&#45;&gt;process_block_6 --><g id="edge6" class="edge"><title>ifs_block_5->process_block_6</title><path fill="none" stroke="#000000" d="M216.36,-297.265C207.667,-289.927 197.114,-281.018 187.385,-272.805"/><polygon fill="#000000" stroke="#000000" points="189.364,-269.896 179.465,-266.12 184.848,-275.245 189.364,-269.896"/><text text-anchor="start" x="202" y="-279" font-family="Open Sans, Noto Sans SC, Noto Sans TC, Noto Sans JP, Noto Sans KR" font-weight="bold" font-size="10.00" fill="#000000"> True </text></g><!-- process_block_7 --><g id="node7" class="node"><title>process_block_7</title><polygon fill="url(#g-processk57txidzu)" stroke="#000000" points="495.5,-266 292.5,-266 292.5,-230 495.5,-230 495.5,-266"/><text text-anchor="start" x="299.5" y="-245.5" font-family="Open Sans, Noto Sans SC, Noto Sans TC, Noto Sans JP, Noto Sans KR" font-size="10.00" fill="#000000">Сеть не соответствует требованию №2</text></g><!-- ifs_block_5&#45;&gt;process_block_7 --><g id="edge7" class="edge"><title>ifs_block_5->process_block_7</title><path fill="none" stroke="#000000" d="M268.72,-299.215C289.471,-290.732 316.534,-279.668 340.195,-269.996"/><polygon fill="#000000" stroke="#000000" points="341.824,-273.111 349.756,-266.087 339.175,-266.632 341.824,-273.111"/><text text-anchor="start" x="324" y="-279" font-family="Open Sans, Noto Sans SC, Noto Sans TC, Noto Sans JP, Noto Sans KR" font-weight="bold" font-size="10.00" fill="#000000"> False </text></g><!-- ifs_block_8 --><g id="node8" class="node"><title>ifs_block_8</title><polygon fill="url(#g-decisionk57txidzu)" stroke="#000000" points="299,-211 130.007,-193 299,-175 467.993,-193 299,-211"/><text text-anchor="start" x="205.5" y="-190.5" font-family="Open Sans, Noto Sans SC, Noto Sans TC, Noto Sans JP, Noto Sans KR" font-size="10.00" fill="#000000">Время (до подбора ключа) > 2 недель?</text></g><!-- process_block_6&#45;&gt;ifs_block_8 --><g id="edge8" class="edge"><title>process_block_6->ifs_block_8</title><path fill="none" stroke="#000000" d="M204.169,-229.991C219.865,-223.868 237.396,-217.03 253.074,-210.914"/><polygon fill="#000000" stroke="#000000" points="254.519,-214.108 262.563,-207.213 251.975,-207.586 254.519,-214.108"/></g><!-- process_block_7&#45;&gt;ifs_block_8 --><g id="edge9" class="edge"><title>process_block_7->ifs_block_8</title><path fill="none" stroke="#000000" d="M362.893,-229.991C353.708,-224.673 343.59,-218.815 334.167,-213.36"/><polygon fill="#000000" stroke="#000000" points="335.808,-210.265 325.4,-208.284 332.3,-216.323 335.808,-210.265"/></g><!-- process_block_9 --><g id="node9" class="node"><title>process_block_9</title><polygon fill="url(#g-processk57txidzu)" stroke="#000000" points="316,-146 128,-146 128,-110 316,-110 316,-146"/><text text-anchor="start" x="135" y="-125.5" font-family="Open Sans, Noto Sans SC, Noto Sans TC, Noto Sans JP, Noto Sans KR" font-size="10.00" fill="#000000">Сеть соответствует требованию №3</text></g><!-- ifs_block_8&#45;&gt;process_block_9 --><g id="edge10" class="edge"><title>ifs_block_8->process_block_9</title><path fill="none" stroke="#000000" d="M279.966,-176.933C271.338,-169.649 260.939,-160.87 251.345,-152.772"/><polygon fill="#000000" stroke="#000000" points="253.431,-149.952 243.532,-146.176 248.916,-155.301 253.431,-149.952"/><text text-anchor="start" x="266" y="-159" font-family="Open Sans, Noto Sans SC, Noto Sans TC, Noto Sans JP, Noto Sans KR" font-weight="bold" font-size="10.00" fill="#000000"> True </text></g><!-- process_block_10 --><g id="node10" class="node"><title>process_block_10</title><polygon fill="url(#g-processk57txidzu)" stroke="#000000" points="559.5,-146 356.5,-146 356.5,-110 559.5,-110 559.5,-146"/><text text-anchor="start" x="363.5" y="-125.5" font-family="Open Sans, Noto Sans SC, Noto Sans TC, Noto Sans JP, Noto Sans KR" font-size="10.00" fill="#000000">Сеть не соответствует требованию №3</text></g><!-- ifs_block_8&#45;&gt;process_block_10 --><g id="edge11" class="edge"><title>ifs_block_8->process_block_10</title><path fill="none" stroke="#000000" d="M334.287,-178.574C354.872,-170.159 381.256,-159.373 404.367,-149.925"/><polygon fill="#000000" stroke="#000000" points="405.778,-153.13 413.71,-146.106 403.129,-146.651 405.778,-153.13"/><text text-anchor="start" x="388" y="-159" font-family="Open Sans, Noto Sans SC, Noto Sans TC, Noto Sans JP, Noto Sans KR" font-weight="bold" font-size="10.00" fill="#000000"> False </text></g><!-- process_block_11 --><g id="node11" class="node"><title>process_block_11</title><polygon fill="url(#g-processk57txidzu)" stroke="#000000" points="433.5,-91 292.5,-91 292.5,-55 433.5,-55 433.5,-91"/><text text-anchor="start" x="299.5" y="-70.5" font-family="Open Sans, Noto Sans SC, Noto Sans TC, Noto Sans JP, Noto Sans KR" font-size="10.00" fill="#000000">Написание документации</text></g><!-- process_block_9&#45;&gt;process_block_11 --><g id="edge12" class="edge"><title>process_block_9->process_block_11</title><path fill="none" stroke="#000000" d="M268.169,-109.991C280.585,-105.148 294.149,-99.8568 307.035,-94.8301"/><polygon fill="#000000" stroke="#000000" points="308.683,-97.9443 316.728,-91.0495 306.139,-91.4229 308.683,-97.9443"/></g><!-- process_block_10&#45;&gt;process_block_11 --><g id="edge13" class="edge"><title>process_block_10->process_block_11</title><path fill="none" stroke="#000000" d="M426.893,-109.991C419.266,-105.575 410.996,-100.787 403.015,-96.1664"/><polygon fill="#000000" stroke="#000000" points="404.584,-93.0309 394.176,-91.0495 401.077,-99.0889 404.584,-93.0309"/></g><!-- terminator_block_12 --><g id="node12" class="node"><title>terminator_block_12</title><ellipse fill="url(#g-terminatork57txidzu)" stroke="#000000" cx="363" cy="-18" rx="158.878" ry="18"/><text text-anchor="start" x="236" y="-15.5" font-family="Open Sans, Noto Sans SC, Noto Sans TC, Noto Sans JP, Noto Sans KR" font-size="10.00" fill="#000000">Окончание проверки на соответствие требованиям</text></g><!-- process_block_11&#45;&gt;terminator_block_12 --><g id="edge14" class="edge"><title>process_block_11->terminator_block_12</title><path fill="none" stroke="#000000" d="M363,-54.9909C363,-52.2653 363,-49.398 363,-46.5157"/><polygon fill="#000000" stroke="#000000" points="366.5,-46.2378 363,-36.2378 359.5,-46.2378 366.5,-46.2378"/></g></g></svg>
