<?xml version="1.0" encoding="UTF-8" standalone="no"?><!DOCTYPE svg PUBLIC "-//W3C//DTD SVG 1.1//EN" "http://www.w3.org/Graphics/SVG/1.1/DTD/svg11.dtd"><!-- Generated by graphviz version 2.39.20160930.0541 (20160930.0541) --><!-- Title: FlowChart Pages: 1 --><svg width="309pt" height="279pt" viewBox="0.00 0.00 308.5 279" xmlns="http://www.w3.org/2000/svg" xmlns:xlink="http://www.w3.org/1999/xlink"><defs><linearGradient id="g-terminatorfcfrzv1rd" x1="0%" x2="100%" y1="0%" y2="0%" spreadMethod="pad"><stop offset="0%" stop-color="#ff8787" stop-opacity="1"/><stop offset="100%" stop-color="#ffb9b9" stop-opacity="1"/></linearGradient><linearGradient id="g-decisionfcfrzv1rd" x1="0%" x2="100%" y1="0%" y2="0%" spreadMethod="pad"><stop offset="0%" stop-color="#ffd287" stop-opacity="1"/><stop offset="100%" stop-color="#ffffb9" stop-opacity="1"/></linearGradient><linearGradient id="g-processfcfrzv1rd" x1="0%" x2="100%" y1="0%" y2="0%" spreadMethod="pad"><stop offset="0%" stop-color="#99ff99" stop-opacity="1"/><stop offset="100%" stop-color="#cbffcb" stop-opacity="1"/></linearGradient><linearGradient id="g-defaultfcfrzv1rd" x1="0%" x2="100%" y1="0%" y2="0%" spreadMethod="pad"><stop offset="0%" stop-color="#99ff99" stop-opacity="1"/><stop offset="100%" stop-color="#cbffcb" stop-opacity="1"/></linearGradient><linearGradient id="g-modulefcfrzv1rd" x1="0%" x2="100%" y1="0%" y2="0%" spreadMethod="pad"><stop offset="0%" stop-color="#77c1e4" stop-opacity="1"/><stop offset="100%" stop-color="#a9f3ff" stop-opacity="1"/></linearGradient><linearGradient id="g-dataiofcfrzv1rd" x1="0%" x2="100%" y1="0%" y2="0%" spreadMethod="pad"><stop offset="0%" stop-color="#bebebe" stop-opacity="1"/><stop offset="100%" stop-color="#f0f0f0" stop-opacity="1"/></linearGradient><linearGradient id="g-preparationfcfrzv1rd" x1="0%" x2="100%" y1="0%" y2="0%" spreadMethod="pad"><stop offset="0%" stop-color="#bebebe" stop-opacity="1"/><stop offset="100%" stop-color="#f0f0f0" stop-opacity="1"/></linearGradient><linearGradient id="g-commentfcfrzv1rd" x1="0%" x2="100%" y1="0%" y2="0%" spreadMethod="pad"><stop offset="0%" stop-color="#f5f588" stop-opacity="1"/><stop offset="100%" stop-color="#ffffba" stop-opacity="1"/></linearGradient><linearGradient id="g-manualfcfrzv1rd" x1="0%" x2="100%" y1="0%" y2="0%" spreadMethod="pad"><stop offset="0%" stop-color="#9e78ff" stop-opacity="1"/><stop offset="100%" stop-color="#d0aaff" stop-opacity="1"/></linearGradient><filter id="dropshadowfcfrzv1rd" height="150%" width="150%"><feGaussianBlur in="SourceAlpha" stdDeviation="3"/><feOffset dx="2" dy="2" result="offsetblur"/><feComponentTransfer/><feMerge><feMergeNode/><feMergeNode in="SourceGraphic"/></feMerge></filter></defs><g id="flowfcfrzv1rd" class="graph" transform="scale(1 1) rotate(0) translate(4 270)"><title>FlowChart</title><!-- terminator_block_1 --><g id="node1" class="node"><title>terminator_block_1</title><ellipse fill="url(#g-terminatorfcfrzv1rd)" stroke="#000000" cx="145.5" cy="-248" rx="113.047" ry="18"/><text text-anchor="start" x="57.5" y="-245.5" font-family="Open Sans, Noto Sans SC, Noto Sans TC, Noto Sans JP, Noto Sans KR" font-size="10.00" fill="#000000">Начало моделирования атаки на ТД</text></g><!-- ifs_block_2 --><g id="node2" class="node"><title>ifs_block_2</title><polygon fill="url(#g-decisionfcfrzv1rd)" stroke="#000000" points="145.5,-211 68.8208,-193 145.5,-175 222.179,-193 145.5,-211"/><text text-anchor="start" x="107.5" y="-190.5" font-family="Open Sans, Noto Sans SC, Noto Sans TC, Noto Sans JP, Noto Sans KR" font-size="10.00" fill="#000000">Атака успешна?</text></g><!-- terminator_block_1&#45;&gt;ifs_block_2 --><g id="edge1" class="edge"><title>terminator_block_1->ifs_block_2</title><path fill="none" stroke="#000000" d="M145.5,-229.991C145.5,-227.265 145.5,-224.398 145.5,-221.516"/><polygon fill="#000000" stroke="#000000" points="149,-221.238 145.5,-211.238 142,-221.238 149,-221.238"/></g><!-- process_block_3 --><g id="node3" class="node"><title>process_block_3</title><polygon fill="url(#g-processfcfrzv1rd)" stroke="#000000" points="123,-146 0,-146 0,-110 123,-110 123,-146"/><text text-anchor="start" x="7" y="-125.5" font-family="Open Sans, Noto Sans SC, Noto Sans TC, Noto Sans JP, Noto Sans KR" font-size="10.00" fill="#000000">Сеть плохо защищена</text></g><!-- ifs_block_2&#45;&gt;process_block_3 --><g id="edge2" class="edge"><title>ifs_block_2->process_block_3</title><path fill="none" stroke="#000000" d="M127.273,-178.896C117.256,-171.144 104.548,-161.311 92.9782,-152.358"/><polygon fill="#000000" stroke="#000000" points="94.8605,-149.389 84.8098,-146.037 90.5766,-154.925 94.8605,-149.389"/><text text-anchor="start" x="109.5" y="-159" font-family="Open Sans, Noto Sans SC, Noto Sans TC, Noto Sans JP, Noto Sans KR" font-weight="bold" font-size="10.00" fill="#000000"> True </text></g><!-- process_block_4 --><g id="node4" class="node"><title>process_block_4</title><polygon fill="url(#g-processfcfrzv1rd)" stroke="#000000" points="295.5,-146 163.5,-146 163.5,-110 295.5,-110 295.5,-146"/><text text-anchor="start" x="170.5" y="-125.5" font-family="Open Sans, Noto Sans SC, Noto Sans TC, Noto Sans JP, Noto Sans KR" font-size="10.00" fill="#000000">Сеть хорошо защищена</text></g><!-- ifs_block_2&#45;&gt;process_block_4 --><g id="edge3" class="edge"><title>ifs_block_2->process_block_4</title><path fill="none" stroke="#000000" d="M163.727,-178.896C173.744,-171.144 186.452,-161.311 198.022,-152.358"/><polygon fill="#000000" stroke="#000000" points="200.423,-154.925 206.19,-146.037 196.14,-149.389 200.423,-154.925"/><text text-anchor="start" x="193.5" y="-159" font-family="Open Sans, Noto Sans SC, Noto Sans TC, Noto Sans JP, Noto Sans KR" font-weight="bold" font-size="10.00" fill="#000000"> False </text></g><!-- process_block_5 --><g id="node5" class="node"><title>process_block_5</title><polygon fill="url(#g-processfcfrzv1rd)" stroke="#000000" points="231,-91 88,-91 88,-55 231,-55 231,-91"/><text text-anchor="start" x="95" y="-70.5" font-family="Open Sans, Noto Sans SC, Noto Sans TC, Noto Sans JP, Noto Sans KR" font-size="10.00" fill="#000000">Подготовка документации</text></g><!-- process_block_3&#45;&gt;process_block_5 --><g id="edge4" class="edge"><title>process_block_3->process_block_5</title><path fill="none" stroke="#000000" d="M93.5889,-109.991C101.542,-105.528 110.172,-100.684 118.487,-96.0174"/><polygon fill="#000000" stroke="#000000" points="120.331,-98.9959 127.339,-91.0495 116.906,-92.8915 120.331,-98.9959"/></g><!-- process_block_4&#45;&gt;process_block_5 --><g id="edge5" class="edge"><title>process_block_4->process_block_5</title><path fill="none" stroke="#000000" d="M206.579,-109.991C201.555,-106.044 196.153,-101.799 190.863,-97.642"/><polygon fill="#000000" stroke="#000000" points="192.737,-94.6639 182.712,-91.2378 188.413,-100.168 192.737,-94.6639"/></g><!-- terminator_block_6 --><g id="node6" class="node"><title>terminator_block_6</title><ellipse fill="url(#g-terminatorfcfrzv1rd)" stroke="#000000" cx="159.5" cy="-18" rx="124.416" ry="18"/><text text-anchor="start" x="62" y="-15.5" font-family="Open Sans, Noto Sans SC, Noto Sans TC, Noto Sans JP, Noto Sans KR" font-size="10.00" fill="#000000">Окончание моделирования атаки на ТД</text></g><!-- process_block_5&#45;&gt;terminator_block_6 --><g id="edge6" class="edge"><title>process_block_5->terminator_block_6</title><path fill="none" stroke="#000000" d="M159.5,-54.9909C159.5,-52.2653 159.5,-49.398 159.5,-46.5157"/><polygon fill="#000000" stroke="#000000" points="163,-46.2378 159.5,-36.2378 156,-46.2378 163,-46.2378"/></g></g></svg>
