<?xml version="1.0" encoding="UTF-8" standalone="no"?><!DOCTYPE svg PUBLIC "-//W3C//DTD SVG 1.1//EN" "http://www.w3.org/Graphics/SVG/1.1/DTD/svg11.dtd"><!-- Generated by graphviz version 2.39.20160930.0541 (20160930.0541) --><!-- Title: FlowChart Pages: 1 --><svg width="617pt" height="315pt" viewBox="0.00 0.00 617 314.93" xmlns="http://www.w3.org/2000/svg" xmlns:xlink="http://www.w3.org/1999/xlink"><defs><linearGradient id="g-terminatorj8ckpl25" x1="0%" x2="100%" y1="0%" y2="0%" spreadMethod="pad"><stop offset="0%" stop-color="#ff8787" stop-opacity="1"/><stop offset="100%" stop-color="#ffb9b9" stop-opacity="1"/></linearGradient><linearGradient id="g-decisionj8ckpl25" x1="0%" x2="100%" y1="0%" y2="0%" spreadMethod="pad"><stop offset="0%" stop-color="#ffd287" stop-opacity="1"/><stop offset="100%" stop-color="#ffffb9" stop-opacity="1"/></linearGradient><linearGradient id="g-processj8ckpl25" x1="0%" x2="100%" y1="0%" y2="0%" spreadMethod="pad"><stop offset="0%" stop-color="#99ff99" stop-opacity="1"/><stop offset="100%" stop-color="#cbffcb" stop-opacity="1"/></linearGradient><linearGradient id="g-defaultj8ckpl25" x1="0%" x2="100%" y1="0%" y2="0%" spreadMethod="pad"><stop offset="0%" stop-color="#99ff99" stop-opacity="1"/><stop offset="100%" stop-color="#cbffcb" stop-opacity="1"/></linearGradient><linearGradient id="g-modulej8ckpl25" x1="0%" x2="100%" y1="0%" y2="0%" spreadMethod="pad"><stop offset="0%" stop-color="#77c1e4" stop-opacity="1"/><stop offset="100%" stop-color="#a9f3ff" stop-opacity="1"/></linearGradient><linearGradient id="g-dataioj8ckpl25" x1="0%" x2="100%" y1="0%" y2="0%" spreadMethod="pad"><stop offset="0%" stop-color="#bebebe" stop-opacity="1"/><stop offset="100%" stop-color="#f0f0f0" stop-opacity="1"/></linearGradient><linearGradient id="g-preparationj8ckpl25" x1="0%" x2="100%" y1="0%" y2="0%" spreadMethod="pad"><stop offset="0%" stop-color="#bebebe" stop-opacity="1"/><stop offset="100%" stop-color="#f0f0f0" stop-opacity="1"/></linearGradient><linearGradient id="g-commentj8ckpl25" x1="0%" x2="100%" y1="0%" y2="0%" spreadMethod="pad"><stop offset="0%" stop-color="#f5f588" stop-opacity="1"/><stop offset="100%" stop-color="#ffffba" stop-opacity="1"/></linearGradient><linearGradient id="g-manualj8ckpl25" x1="0%" x2="100%" y1="0%" y2="0%" spreadMethod="pad"><stop offset="0%" stop-color="#9e78ff" stop-opacity="1"/><stop offset="100%" stop-color="#d0aaff" stop-opacity="1"/></linearGradient><filter id="dropshadowj8ckpl25" height="150%" width="150%"><feGaussianBlur in="SourceAlpha" stdDeviation="3"/><feOffset dx="2" dy="2" result="offsetblur"/><feComponentTransfer/><feMerge><feMergeNode/><feMergeNode in="SourceGraphic"/></feMerge></filter></defs><g id="flowj8ckpl25" class="graph" transform="scale(0.767153 0.767153) rotate(0) translate(4 400)"><title>FlowChart</title><!-- terminator_block_1 --><g id="node1" class="node"><title>terminator_block_1</title><ellipse fill="url(#g-terminatorj8ckpl25)" stroke="#000000" cx="642" cy="-378" rx="147.509" ry="18"/><text text-anchor="start" x="524.5" y="-375.5" font-family="Open Sans, Noto Sans SC, Noto Sans TC, Noto Sans JP, Noto Sans KR" font-size="10.00" fill="#000000">Начало проверки на соответствие требованиям</text></g><!-- ifs_block_2 --><g id="node2" class="node"><title>ifs_block_2</title><polygon fill="url(#g-decisionj8ckpl25)" stroke="#000000" points="642,-341 506.106,-323 642,-305 777.894,-323 642,-341"/><text text-anchor="start" x="568.5" y="-320.5" font-family="Open Sans, Noto Sans SC, Noto Sans TC, Noto Sans JP, Noto Sans KR" font-size="10.00" fill="#000000">Показатель безопасности = 1?</text></g><!-- terminator_block_1&#45;&gt;ifs_block_2 --><g id="edge1" class="edge"><title>terminator_block_1->ifs_block_2</title><path fill="none" stroke="#000000" d="M642,-359.991C642,-357.265 642,-354.398 642,-351.516"/><polygon fill="#000000" stroke="#000000" points="645.5,-351.238 642,-341.238 638.5,-351.238 645.5,-351.238"/></g><!-- ifs_block_3 --><g id="node3" class="node"><title>ifs_block_3</title><polygon fill="url(#g-decisionj8ckpl25)" stroke="#000000" points="504,-276 363.116,-258 504,-240 644.884,-258 504,-276"/><text text-anchor="start" x="427.5" y="-255.5" font-family="Open Sans, Noto Sans SC, Noto Sans TC, Noto Sans JP, Noto Sans KR" font-size="10.00" fill="#000000">Показатель "вредности" &lt; 50%?</text></g><!-- ifs_block_2&#45;&gt;ifs_block_3 --><g id="edge2" class="edge"><title>ifs_block_2->ifs_block_3</title><path fill="none" stroke="#000000" d="M612.056,-308.896C592.031,-299.464 565.461,-286.949 543.68,-276.69"/><polygon fill="#000000" stroke="#000000" points="544.9,-273.396 534.362,-272.301 541.917,-279.729 544.9,-273.396"/><text text-anchor="start" x="581" y="-289" font-family="Open Sans, Noto Sans SC, Noto Sans TC, Noto Sans JP, Noto Sans KR" font-weight="bold" font-size="10.00" fill="#000000"> True </text></g><!-- process_block_7 --><g id="node7" class="node"><title>process_block_7</title><polygon fill="url(#g-processj8ckpl25)" stroke="#000000" points="615.5,-91 474.5,-91 474.5,-55 615.5,-55 615.5,-91"/><text text-anchor="start" x="481.5" y="-70.5" font-family="Open Sans, Noto Sans SC, Noto Sans TC, Noto Sans JP, Noto Sans KR" font-size="10.00" fill="#000000">Написание документации</text></g><!-- ifs_block_2&#45;&gt;process_block_7 --><g id="edge9" class="edge"><title>ifs_block_2->process_block_7</title><path fill="none" stroke="#000000" d="M669.885,-308.473C687.132,-297.284 706,-280.013 706,-258 706,-258 706,-258 706,-128 706,-109.103 665.781,-95.3568 625.547,-86.3326"/><polygon fill="#000000" stroke="#000000" points="626.129,-82.8779 615.617,-84.1965 624.657,-89.7213 626.129,-82.8779"/><text text-anchor="start" x="706" y="-191.5" font-family="Open Sans, Noto Sans SC, Noto Sans TC, Noto Sans JP, Noto Sans KR" font-weight="bold" font-size="10.00" fill="#000000"> False </text></g><!-- ifs_block_4 --><g id="node4" class="node"><title>ifs_block_4</title><polygon fill="url(#g-decisionj8ckpl25)" stroke="#000000" points="375,-211 206.007,-193 375,-175 543.993,-193 375,-211"/><text text-anchor="start" x="281.5" y="-190.5" font-family="Open Sans, Noto Sans SC, Noto Sans TC, Noto Sans JP, Noto Sans KR" font-size="10.00" fill="#000000">Время (до подбора ключа) &lt; 2 недель?</text></g><!-- ifs_block_3&#45;&gt;ifs_block_4 --><g id="edge3" class="edge"><title>ifs_block_3->ifs_block_4</title><path fill="none" stroke="#000000" d="M475.371,-243.574C457.3,-234.469 433.722,-222.589 413.96,-212.631"/><polygon fill="#000000" stroke="#000000" points="415.399,-209.437 404.894,-208.063 412.25,-215.688 415.399,-209.437"/><text text-anchor="start" x="448" y="-224" font-family="Open Sans, Noto Sans SC, Noto Sans TC, Noto Sans JP, Noto Sans KR" font-weight="bold" font-size="10.00" fill="#000000"> True </text></g><!-- ifs_block_3&#45;&gt;process_block_7 --><g id="edge8" class="edge"><title>ifs_block_3->process_block_7</title><path fill="none" stroke="#000000" d="M532.177,-243.587C544.331,-235.744 557.28,-224.8 564,-211 583.652,-170.642 574.548,-153.632 564,-110 563.219,-106.771 562.106,-103.508 560.804,-100.328"/><polygon fill="#000000" stroke="#000000" points="563.908,-98.7034 556.48,-91.1486 557.576,-101.687 563.908,-98.7034"/><text text-anchor="start" x="575" y="-159" font-family="Open Sans, Noto Sans SC, Noto Sans TC, Noto Sans JP, Noto Sans KR" font-weight="bold" font-size="10.00" fill="#000000"> False </text></g><!-- process_block_5 --><g id="node5" class="node"><title>process_block_5</title><polygon fill="url(#g-processj8ckpl25)" stroke="#000000" points="244,-146 -1.42109e-14,-146 -1.42109e-14,-110 244,-110 244,-146"/><text text-anchor="start" x="7" y="-125.5" font-family="Open Sans, Noto Sans SC, Noto Sans TC, Noto Sans JP, Noto Sans KR" font-size="10.00" fill="#000000">Сеть соответствует требованиям безопасности</text></g><!-- ifs_block_4&#45;&gt;process_block_5 --><g id="edge4" class="edge"><title>ifs_block_4->process_block_5</title><path fill="none" stroke="#000000" d="M325.317,-180.236C290.22,-171.218 242.425,-158.939 201.994,-148.552"/><polygon fill="#000000" stroke="#000000" points="202.711,-145.122 192.154,-146.024 200.969,-151.902 202.711,-145.122"/><text text-anchor="start" x="264" y="-159" font-family="Open Sans, Noto Sans SC, Noto Sans TC, Noto Sans JP, Noto Sans KR" font-weight="bold" font-size="10.00" fill="#000000"> True </text></g><!-- process_block_6 --><g id="node6" class="node"><title>process_block_6</title><polygon fill="url(#g-processj8ckpl25)" stroke="#000000" points="543.5,-146 284.5,-146 284.5,-110 543.5,-110 543.5,-146"/><text text-anchor="start" x="291.5" y="-125.5" font-family="Open Sans, Noto Sans SC, Noto Sans TC, Noto Sans JP, Noto Sans KR" font-size="10.00" fill="#000000">Сеть не соответствует требованиям безопасности</text></g><!-- ifs_block_4&#45;&gt;process_block_6 --><g id="edge5" class="edge"><title>ifs_block_4->process_block_6</title><path fill="none" stroke="#000000" d="M385.247,-175.922C389.119,-169.469 393.624,-161.96 397.904,-154.827"/><polygon fill="#000000" stroke="#000000" points="400.996,-156.476 403.14,-146.101 394.993,-152.875 400.996,-156.476"/><text text-anchor="start" x="397" y="-159" font-family="Open Sans, Noto Sans SC, Noto Sans TC, Noto Sans JP, Noto Sans KR" font-weight="bold" font-size="10.00" fill="#000000"> False </text></g><!-- process_block_5&#45;&gt;process_block_7 --><g id="edge6" class="edge"><title>process_block_5->process_block_7</title><path fill="none" stroke="#000000" d="M244.065,-112.129C314.802,-102.931 401.899,-91.6066 464.159,-83.5112"/><polygon fill="#000000" stroke="#000000" points="464.854,-86.9504 474.319,-82.1902 463.952,-80.0088 464.854,-86.9504"/></g><!-- process_block_6&#45;&gt;process_block_7 --><g id="edge7" class="edge"><title>process_block_6->process_block_7</title><path fill="none" stroke="#000000" d="M456.894,-109.991C468.317,-105.195 480.785,-99.9605 492.652,-94.9781"/><polygon fill="#000000" stroke="#000000" points="494.144,-98.1478 502.009,-91.0495 491.434,-91.6936 494.144,-98.1478"/></g><!-- terminator_block_8 --><g id="node8" class="node"><title>terminator_block_8</title><ellipse fill="url(#g-terminatorj8ckpl25)" stroke="#000000" cx="545" cy="-18" rx="158.878" ry="18"/><text text-anchor="start" x="418" y="-15.5" font-family="Open Sans, Noto Sans SC, Noto Sans TC, Noto Sans JP, Noto Sans KR" font-size="10.00" fill="#000000">Окончание проверки на соответствие требованиям</text></g><!-- process_block_7&#45;&gt;terminator_block_8 --><g id="edge10" class="edge"><title>process_block_7->terminator_block_8</title><path fill="none" stroke="#000000" d="M545,-54.9909C545,-52.2653 545,-49.398 545,-46.5157"/><polygon fill="#000000" stroke="#000000" points="548.5,-46.2378 545,-36.2378 541.5,-46.2378 548.5,-46.2378"/></g></g></svg>
